{
  "asset": {
    "version": "2.0",
    "generator": "THREE.GLTFExporter"
  },
  "scenes": [
    {
      "nodes": [
        1
      ],
      "name": "Tinkercad GLTF Scene"
    }
  ],
  "scene": 0,
  "nodes": [
    {
      "name": "Mesh_Mesh_head_geo001_lambert2SG001",
      "mesh": 0
    },
    {
      "matrix": [
        1,
        0,
        0,
        0,
        0,
        2.220446049250313e-16,
        -1,
        0,
        0,
        1,
        2.220446049250313e-16,
        0,
        0,
        0,
        0,
        1
      ],
      "children": [
        0
      ]
    }
  ],
  "bufferViews": [
    {
      "buffer": 0,
      "byteOffset": 0,
      "byteLength": 632232,
      "target": 34962,
      "byteStride": 12
    },
    {
      "buffer": 0,
      "byteOffset": 632232,
      "byteLength": 632232,
      "target": 34962,
      "byteStride": 12
    },
    {
      "buffer": 0,
      "byteOffset": 1264464,
      "byteLength": 210744,
      "target": 34963
    }
  ],
  "buffers": [
    {
      "byteLength": 1475208,
      "uri": "data:application/octet-stream;base64,"
    }
  ],
  "accessors": [
    {
      "bufferView": 0,
      "componentType": 5126,
      "count": 52686,
      "max": [
        85,
        80.66000366210938,
        10
      ],
      "min": [
        -82.14800262451172,
        -78,
        0
      ],
      "type": "VEC3"
    },
    {
      "bufferView": 1,
      "componentType": 5126,
      "count": 52686,
      "max": [
        0.27450981736183167,
        0.7176470756530762,
        0.2862745225429535
      ],
      "min": [
        0.27450981736183167,
        0.7176470756530762,
        0.2862745225429535
      ],
      "type": "VEC3"
    },
    {
      "bufferView": 2,
      "componentType": 5125,
      "count": 52686,
      "max": [
        52685
      ],
      "min": [
        0
      ],
      "type": "SCALAR"
    }
  ],
  "materials": [
    {
      "pbrMetallicRoughness": {
        "metallicFactor": 0.5,
        "roughnessFactor": 0.5
      },
      "name": "lambert2SG.001"
    }
  ],
  "meshes": [
    {
      "primitives": [
        {
          "mode": 4,
          "attributes": {
            "POSITION": 0,
            "COLOR_0": 1
          },
          "indices": 2,
          "material": 0
        }
      ]
    }
  ]
}